# xmcd CD database file
#
# Track frame offsets:
#	150
#	98822
#	132898
#	164372
#	206929
#	223436
#	265890
#
# Disc length: 4350 seconds
#
# Revision: 0
# Processed by: cddbd v1.5.2PL0 Copyright (c) Steve Scherf et al.
# Submitted via: CDex 1.70beta3
#
DISCID=6e10fc07
DTITLE=David S. Ware - Cooper-Moore - William Parker - Muhammad Ali - Planetary Unknown
DYEAR=2010
DGENRE=Jazz
TTITLE0=Passage Wudang
TTITLE1=Shift
TTITLE2=Duality is One
TTITLE3=Divination
TTITLE4=Crystal Palace
TTITLE5=Divination Unfathomable
TTITLE6=Ancestry Supramental
EXTD=YEAR: 2010
EXTT0=
EXTT1=
EXTT2=
EXTT3=
EXTT4=
EXTT5=
EXTT6=
PLAYORDER=
